<svg width="198" height="138" fill="none" xmlns="http://www.w3.org/2000/svg"><g filter="url(#filter0_d_2_239)"><path d="M191.493 1.752L144.77 59.675s-4.929 9.858-18.347 8.763c-13.418-1.095-25.631-10.5-25.631-10.5l40.966-50.565A17.984 17.984 0 01146.286 3c2.8-1.83 9.492-1.246 9.492-1.246l35.715-.002z" fill="url(#paint0_linear_2_239)"/></g><g filter="url(#filter1_d_2_239)"><path d="M146.305 57.798l-44.4 55.2-90.914-112h36.421s6.515.093 8.46 1.065a23.621 23.621 0 014.684 3.864l41.349 51.208a36.415 36.415 0 0016.806 8.552c7.965 1.625 19.101-.514 27.594-7.889z" fill="url(#paint1_linear_2_239)"/></g><defs><linearGradient id="paint0_linear_2_239" x1="176.618" y1="8.284" x2="139.332" y2="75.221" gradientUnits="userSpaceOnUse"><stop stop-color="#1CD6A1"/><stop offset=".51" stop-color="#2CB9A3"/><stop offset="1" stop-color="#192B35"/></linearGradient><linearGradient id="paint1_linear_2_239" x1="110.853" y1="99.334" x2="48.217" y2="-7.985" gradientUnits="userSpaceOnUse"><stop stop-color="#17DA9C"/><stop offset=".448" stop-color="#2ECBB1"/><stop offset="1" stop-color="#192B35"/></linearGradient><filter id="filter0_d_2_239" x="94.792" y="1.665" width="102.701" height="87.858" filterUnits="userSpaceOnUse" color-interpolation-filters="sRGB"><feFlood flood-opacity="0" result="BackgroundImageFix"/><feColorMatrix in="SourceAlpha" values="0 0 0 0 0 0 0 0 0 0 0 0 0 0 0 0 0 0 127 0" result="hardAlpha"/><feOffset dy="15"/><feGaussianBlur stdDeviation="3"/><feColorMatrix values="0 0 0 0 0 0 0 0 0 0 0 0 0 0 0 0 0 0 0.161 0"/><feBlend in2="BackgroundImageFix" result="effect1_dropShadow_2_239"/><feBlend in="SourceGraphic" in2="effect1_dropShadow_2_239" result="shape"/></filter><filter id="filter1_d_2_239" x=".991" y=".998" width="155.314" height="137" filterUnits="userSpaceOnUse" color-interpolation-filters="sRGB"><feFlood flood-opacity="0" result="BackgroundImageFix"/><feColorMatrix in="SourceAlpha" values="0 0 0 0 0 0 0 0 0 0 0 0 0 0 0 0 0 0 127 0" result="hardAlpha"/><feOffset dy="15"/><feGaussianBlur stdDeviation="5"/><feColorMatrix values="0 0 0 0 0 0 0 0 0 0 0 0 0 0 0 0 0 0 0.161 0"/><feBlend in2="BackgroundImageFix" result="effect1_dropShadow_2_239"/><feBlend in="SourceGraphic" in2="effect1_dropShadow_2_239" result="shape"/></filter></defs></svg>