<svg width="18" height="17" fill="none" xmlns="http://www.w3.org/2000/svg"><path d="M5.622 13.624c-.346 0-.685.099-.973.284a1.704 1.704 0 00-.645.757 1.632 1.632 0 00-.1.975c.067.328.234.629.478.865a1.802 1.802 0 001.908.367c.32-.128.593-.344.786-.621a1.646 1.646 0 00-.216-2.133 1.752 1.752 0 00-.568-.366 1.805 1.805 0 00-.67-.128zM.372.124v1.688h1.75l3.15 6.4-1.182 2.071c-.145.247-.22.526-.219.81.002.447.187.876.515 1.192a1.79 1.79 0 001.236.496h10.5v-1.687H5.99a.223.223 0 01-.155-.061.208.208 0 01-.064-.15l.026-.1.787-1.375h6.518c.313.001.62-.08.89-.232a1.71 1.71 0 00.642-.637l3.133-5.476a.83.83 0 00-.153-1.001.894.894 0 00-.619-.248H4.054l-.82-1.69H.372zm13.999 13.5a1.8 1.8 0 00-.973.284c-.288.186-.512.45-.644.758a1.632 1.632 0 00-.1.975c.068.328.234.629.479.865.245.236.557.396.896.462.34.065.692.031 1.011-.096.32-.128.594-.345.786-.622a1.646 1.646 0 00-.217-2.133 1.753 1.753 0 00-.568-.365 1.803 1.803 0 00-.67-.128z" fill="#0B3A68"/></svg>